<?xml version="1.0" encoding="UTF-8"?>
<svg width="420px" height="21px" viewBox="0 0 420 21" version="1.1" xmlns="http://www.w3.org/2000/svg" xmlns:xlink="http://www.w3.org/1999/xlink">
    <!-- Generator: Sketch 41.1 (35376) - http://www.bohemiancoding.com/sketch -->
    <title>{</title>
    <desc>Created with Sketch.</desc>
    <defs></defs>
    <g id="Page-1" stroke="none" stroke-width="1" fill="none" fill-rule="evenodd">
        <g id="Get-Involved-by-cheque" transform="translate(-30.000000, -1694.000000)" fill="#2EB688">
            <path d="M250.454217,1914.45017 L250.454217,1910.79491 L249.142572,1910.79491 C245.510325,1910.79491 243.85705,1910.59312 242.747197,1909.48326 C241.637344,1908.37341 241.334656,1906.65818 241.334656,1902.92504 L241.334656,1713.88001 C241.334656,1708.63343 239.518532,1705.90924 235.180015,1703.79043 C239.518532,1701.67162 241.334656,1698.94743 241.334656,1693.70085 L241.334656,1505.54087 C241.334656,1501.80773 242.079869,1500.0925 243.189722,1498.98265 C244.299576,1497.87279 245.510325,1497.671 249.142572,1497.671 L250.454217,1497.671 L250.454217,1494.45827 L249.041677,1494.45827 C244.097784,1494.45827 242.157753,1494.27949 240.139838,1496.2974 C238.222818,1498.21442 237.516548,1499.89071 237.516548,1505.43998 L237.516548,1693.59996 C237.516548,1696.42504 236.911174,1698.44295 235.700424,1699.6537 C234.590571,1700.76356 233.278926,1701.57072 231.361906,1701.57072 L229.545783,1701.57072 L229.545783,1706.01014 L231.361906,1706.01014 C233.278926,1706.01014 234.590571,1706.8173 235.700424,1707.92716 C236.344902,1708.57163 236.817853,1709.44481 237.119278,1710.5467 C237.384125,1711.51487 237.516548,1712.6596 237.516548,1713.9809 L237.516548,1903.02593 C237.516548,1908.5752 238.222818,1910.69401 240.139838,1912.61103 C242.157753,1914.62895 244.097784,1914.45017 249.041677,1914.45017 L250.454217,1914.45017 Z" id="{" transform="translate(240.000000, 1704.454217) rotate(-90.000000) translate(-240.000000, -1704.454217) "></path>
        </g>
    </g>
</svg>