<?xml version="1.0" encoding="UTF-8" standalone="no"?>
<svg width="327px" height="79px" viewBox="0 0 327 79" version="1.1" xmlns="http://www.w3.org/2000/svg" xmlns:xlink="http://www.w3.org/1999/xlink">
    <!-- Generator: Sketch 41 (35326) - http://www.bohemiancoding.com/sketch -->
    <title>Group 3</title>
    <desc>Created with Sketch.</desc>
    <defs>
        <polygon id="path-1" points="3.69567461e-20 0.310035731 3.69567461e-20 54.4367663 89.7589689 54.4367663 89.7589689 0.310035731 0 0.310035731"></polygon>
    </defs>
    <g id="Symbols" stroke="none" stroke-width="1" fill="none" fill-rule="evenodd">
        <g id="navigation" transform="translate(-80.000000, -6.000000)">
            <g id="Group-3" transform="translate(80.000000, 6.000000)">
                <g id="Group-10">
                    <polygon id="Fill-2" fill="#2EB688" points="123.484792 54.5230236 153.984102 54.5230236 153.984102 23.950283 123.484792 23.950283"></polygon>
                    <g id="Group-12">
                        <path d="M88.2034232,39.36254 C88.2034232,48.2641376 95.4188708,55.4805805 104.320923,55.4805805 C113.222974,55.4805805 120.438422,48.2641376 120.438422,39.36254 C120.438422,30.4623058 113.222974,23.2458629 104.320923,23.2458629 C95.4188708,23.2458629 88.2034232,30.4623058 88.2034232,39.36254 Z" id="Fill-3" fill="#FFFF66"></path>
                        <g id="Group-7">
                            <mask id="mask-2" fill="white">
                                <use xlink:href="#path-1"></use>
                            </mask>
                            <g id="Clip-6"></g>
                            <polygon id="Fill-5" fill="#231F1F" mask="url(#mask-2)" points="23.0160781 5.89994997 43.9111528 54.4367663 47.7588462 54.4367663 66.9904957 6.68526475 85.6399463 54.4367663 89.7589689 54.4367663 68.8829827 0.987642408 65.160728 0.974008471 45.7750071 49.1058968 24.7694919 0.310035731 21.0595083 0.356391117 -0.00054538531 54.408135 0.10989514 54.4367663 4.10484253 54.4367663"></polygon>
                        </g>
                        <polygon id="Fill-8" fill="#231F1F" points="43.5245365 54.4371753 81.4070001 54.4371753 62.7575494 6.68567377"></polygon>
                        <polygon id="Fill-10" fill="#F76072" points="67.0318086 6.72603022 85.7003478 54.4802585 47.7578918 54.4243594"></polygon>
                    </g>
                    <polygon id="Fill-16" fill="#231F1F" points="100.607059 11.6433823 93.8047411 2.30686217 93.8047411 11.6433823 92.4371875 11.6433823 92.4371875 0 93.7324776 0 100.534796 9.30516211 100.534796 0 101.903713 0 101.903713 11.6433823"></polygon>
                    <polygon id="Fill-18" fill="#231F1F" points="110.783499 11.6433823 110.783499 0 118.737944 0 118.737944 1.11252927 112.151053 1.11252927 112.151053 5.21770775 117.765795 5.21770775 117.765795 6.32887363 112.151053 6.32887363 112.151053 10.5322165 118.737944 10.5322165 118.737944 11.6433823"></polygon>
                    <polygon id="Fill-20" fill="#231F1F" points="135.001967 11.6433823 133.724402 11.6433823 130.880217 2.32322289 128.037396 11.6433823 126.759831 11.6433823 123.484792 0 124.942335 0 127.442926 9.38696574 130.268022 0 131.492412 0 134.317508 9.38696574 136.819463 0 138.277005 0"></polygon>
                    <polygon id="Fill-22" fill="#231F1F" points="170.988963 11.6433823 169.711398 11.6433823 166.868577 2.32322289 164.025756 11.6433823 162.746828 11.6433823 159.471789 0 160.929331 0 163.431286 9.38696574 166.256382 0 167.480772 0 170.305868 9.38696574 172.80646 0 174.264002 0"></polygon>
                    <polygon id="Fill-24" fill="#231F1F" points="181.346238 11.6433823 181.346238 0 189.300683 0 189.300683 1.11252927 182.713792 1.11252927 182.713792 5.21770775 188.328533 5.21770775 188.328533 6.32887363 182.713792 6.32887363 182.713792 10.5322165 189.300683 10.5322165 189.300683 11.6433823"></polygon>
                    <path d="M200.554765,11.8383476 C198.629555,11.8383476 197.369715,11.3966081 196.164413,10.3018029 L197.099749,9.45104524 C198.161887,10.416328 199.151761,10.7271818 200.590215,10.7271818 C202.46225,10.7271818 203.614376,9.92550626 203.614376,8.56892951 C203.614376,7.9635827 203.416674,7.44003951 203.003545,7.11282502 C202.589052,6.78561053 202.264548,6.68744618 201.329212,6.55656038 L199.83622,6.34387096 C198.827257,6.19662444 198.035085,5.9021314 197.477428,5.46175523 C196.831147,4.93821204 196.505279,4.21834016 196.505279,3.28714225 C196.505279,1.30749457 198.071898,0 200.609303,0 C202.246823,0 203.326686,0.376296666 204.424274,1.27477312 L203.542113,2.07644863 C202.749941,1.42201965 201.904593,1.07844443 200.554765,1.07844443 C198.844982,1.07844443 197.856471,1.94556283 197.856471,3.23669668 C197.856471,3.80932204 198.035085,4.26742233 198.431853,4.5782761 C198.827257,4.88912987 199.49399,5.11818001 200.15936,5.21634436 L201.562364,5.41267305 C202.769029,5.5762803 203.363499,5.80533044 203.902067,6.22934589 C204.604251,6.7692498 204.98193,7.57092531 204.98193,8.53620806 C204.98193,10.5799352 203.218972,11.8383476 200.554765,11.8383476" id="Fill-26" fill="#231F1F"></path>
                    <polygon id="Fill-28" fill="#231F1F" points="217.470017 1.11252927 217.470017 11.6433823 216.102463 11.6433823 216.102463 1.11252927 212.393843 1.11252927 212.393843 0 221.177273 0 221.177273 1.11252927"></polygon>
                    <polygon id="Fill-30" fill="#231F1F" points="237.527335 11.6433823 237.527335 2.79768391 234.019144 9.81234458 232.847929 9.81234458 229.285199 2.79768391 229.285199 11.6433823 227.917645 11.6433823 227.917645 0 229.285199 0 233.461487 8.25943913 237.527335 0 238.896252 0 238.896252 11.6433823"></polygon>
                    <polygon id="Fill-32" fill="#231F1F" points="245.55833 11.6433823 246.925884 11.6433823 246.925884 0 245.55833 0"></polygon>
                    <polygon id="Fill-34" fill="#231F1F" points="262.195731 11.6433823 255.393412 2.30686217 255.393412 11.6433823 254.025859 11.6433823 254.025859 0 255.321149 0 262.123467 9.30516211 262.123467 0 263.491021 0 263.491021 11.6433823"></polygon>
                    <path d="M275.351268,11.8383476 C273.426058,11.8383476 272.166217,11.3966081 270.960916,10.3018029 L271.896252,9.45104524 C272.95839,10.416328 273.948264,10.7271818 275.388081,10.7271818 C277.258753,10.7271818 278.410879,9.92550626 278.410879,8.56892951 C278.410879,7.9635827 278.213177,7.44003951 277.800048,7.11282502 C277.385555,6.78561053 277.061051,6.68744618 276.125715,6.55656038 L274.632723,6.34387096 C273.62376,6.19662444 272.831588,5.9021314 272.273931,5.46175523 C271.627649,4.93821204 271.301782,4.21834016 271.301782,3.28714225 C271.301782,1.30749457 272.868401,0 275.405806,0 C277.043326,0 278.123189,0.376296666 279.220776,1.27477312 L278.338616,2.07644863 C277.546444,1.42201965 276.701096,1.07844443 275.351268,1.07844443 C273.641485,1.07844443 272.652974,1.94556283 272.652974,3.23669668 C272.652974,3.80932204 272.831588,4.26742233 273.228355,4.5782761 C273.62376,4.88912987 274.290493,5.11818001 274.955863,5.21634436 L276.358867,5.41267305 C277.565532,5.5762803 278.160002,5.80533044 278.69857,6.22934589 C279.400754,6.7692498 279.778433,7.57092531 279.778433,8.53620806 C279.778433,10.5799352 278.015475,11.8383476 275.351268,11.8383476" id="Fill-35" fill="#231F1F"></path>
                    <polygon id="Fill-36" fill="#231F1F" points="291.560892 1.11252927 291.560892 11.6433823 290.193339 11.6433823 290.193339 1.11252927 286.484718 1.11252927 286.484718 0 295.268149 0 295.268149 1.11252927"></polygon>
                    <polygon id="Fill-37" fill="#231F1F" points="302.714148 11.6433823 302.714148 0 310.668593 0 310.668593 1.11252927 304.081702 1.11252927 304.081702 5.21770775 309.696444 5.21770775 309.696444 6.32887363 304.081702 6.32887363 304.081702 10.5322165 310.668593 10.5322165 310.668593 11.6433823"></polygon>
                    <path d="M322.319443,1.11252927 L318.899877,1.11252927 L318.899877,5.3799516 L322.319443,5.3799516 C323.813799,5.3799516 324.874573,4.67644045 324.874573,3.2544208 C324.874573,1.83240115 323.813799,1.11252927 322.319443,1.11252927 L322.319443,1.11252927 Z M324.893662,11.6433823 L321.977214,6.47612015 L318.899877,6.47612015 L318.899877,11.6433823 L317.532323,11.6433823 L317.532323,0 L322.446245,0 C324.676871,0 326.24349,1.22705434 326.24349,3.23806008 C326.24349,4.93821204 325.109089,6.05074131 323.453844,6.36159508 L326.495731,11.6433823 L324.893662,11.6433823 Z" id="Fill-38" fill="#231F1F"></path>
                    <polygon id="Fill-39" fill="#231F1F" points="168.560424 26.8706723 168.560424 54.5230236 164.969062 54.5230236 164.969062 26.8706723 155.238025 26.8706723 155.238025 23.950283 178.292825 23.950283 178.292825 26.8706723"></polygon>
                    <polygon id="Fill-40" fill="#231F1F" points="183.46312 54.5230236 183.46312 23.950283 204.345924 23.950283 204.345924 26.8706723 187.054482 26.8706723 187.054482 37.6482996 201.794884 37.6482996 201.794884 40.568689 187.054482 40.568689 187.054482 51.6026343 204.345924 51.6026343 204.345924 54.5230236"></polygon>
                    <g id="Group" transform="translate(208.532605, 23.950283)" fill="#231F1F">
                        <path d="M11.8430983,31.2549829 C6.78737648,31.2549829 3.47961458,30.0960983 0.313652855,27.2193375 L2.77197714,24.9860986 C5.55889607,27.5206475 8.15765707,28.335957 11.9358138,28.335957 C16.8510989,28.335957 19.8752605,26.2308771 19.8752605,22.6669659 C19.8752605,21.0786122 19.3557809,19.7043113 18.2677373,18.8453733 C17.181057,17.9877987 16.3316194,17.7301172 13.8732951,17.386542 L9.95197474,16.8275506 C7.30685599,16.4417102 5.2275745,15.6686659 3.76321494,14.5097813 C2.06161277,13.1354804 1.21217515,11.2458167 1.21217515,8.79852501 C1.21217515,3.60399495 5.32301692,0.168242785 11.9848985,0.168242785 C16.2838982,0.168242785 19.1185383,1.15533984 22.0008997,3.51673775 L19.6857391,5.62045426 C17.607821,3.90257817 15.3867394,3.00137493 11.8430983,3.00137493 C7.3545772,3.00137493 4.7558162,5.27687904 4.7558162,8.670366 C4.7558162,10.1728259 5.2275745,11.3753391 6.26653351,12.192012 C7.30685599,13.005958 9.05481591,13.608578 10.8027758,13.8648961 L14.4882171,14.3802589 C17.6541788,14.8097279 19.2126173,15.4109845 20.6306191,16.527604 C22.4740215,17.9441701 23.4652593,20.0478866 23.4652593,22.5824355 C23.4652593,27.9487531 18.834938,31.2549829 11.8430983,31.2549829" id="Fill-41"></path>
                        <path d="M37.4560947,31.2549829 C32.4003728,31.2549829 29.0926109,30.0960983 25.9266492,27.2193375 L28.3849735,24.9860986 C31.1718924,27.5206475 33.7706534,28.335957 37.5488102,28.335957 C42.4640953,28.335957 45.4882568,26.2308771 45.4882568,22.6669659 C45.4882568,21.0786122 44.9687773,19.7043113 43.8807336,18.8453733 C42.7940534,17.9877987 41.9446158,17.7301172 39.4862915,17.386542 L35.5649711,16.8275506 C32.9198524,16.4417102 30.8405709,15.6686659 29.3762113,14.5097813 C27.6746091,13.1354804 26.8251715,11.2458167 26.8251715,8.79852501 C26.8251715,3.60399495 30.9360133,0.168242785 37.5978948,0.168242785 C41.8968946,0.168242785 44.7315347,1.15533984 47.6138961,3.51673775 L45.2987354,5.62045426 C43.2208174,3.90257817 40.9997357,3.00137493 37.4560947,3.00137493 C32.9675736,3.00137493 30.3688126,5.27687904 30.3688126,8.670366 C30.3688126,10.1728259 30.8405709,11.3753391 31.8795299,12.192012 C32.9198524,13.005958 34.6678123,13.608578 36.4157722,13.8648961 L40.1012134,14.3802589 C43.2671751,14.8097279 44.8256137,15.4109845 46.2436155,16.527604 C48.0870178,17.9441701 49.0782556,20.0478866 49.0782556,22.5824355 C49.0782556,27.9487531 44.4479343,31.2549829 37.4560947,31.2549829" id="Fill-42"></path>
                        <path d="M72.1831964,5.27728806 C70.7188369,3.90298719 68.5918342,3.08767775 66.3707525,3.08767775 C64.1510343,3.08767775 62.025395,3.90298719 60.5610355,5.27728806 C58.4340328,7.25284555 58.1981536,9.31429685 58.1981536,15.7113402 C58.1981536,22.1097469 58.4340328,24.1698348 60.5610355,26.1467557 C62.025395,27.5196931 64.1510343,28.336366 66.3707525,28.336366 C68.5918342,28.336366 70.7188369,27.5196931 72.1831964,26.1467557 C74.3101991,24.1698348 74.5447148,22.1097469 74.5447148,15.7113402 C74.5447148,9.31429685 74.3101991,7.25284555 72.1831964,5.27728806 M74.9714788,28.0786846 C72.7026759,30.1387725 69.7262356,31.2553919 66.3707525,31.2553919 C63.0166328,31.2553919 60.041556,30.1387725 57.7727531,28.0786846 C54.6067914,25.2005604 54.6067914,22.1956407 54.6067914,15.7113402 C54.6067914,9.22703965 54.6067914,6.2221199 57.7727531,3.34535916 C60.041556,1.28390786 63.0166328,0.168651803 66.3707525,0.168651803 C69.7262356,0.168651803 72.7026759,1.28390786 74.9714788,3.34535916 C78.1360771,6.2221199 78.1360771,9.22703965 78.1360771,15.7113402 C78.1360771,22.1956407 78.1360771,25.2005604 74.9714788,28.0786846" id="Fill-43"></path>
                        <path d="M97.0425715,3.34535916 L88.0655293,3.34535916 L88.0655293,14.5524555 L97.0425715,14.5524555 C100.963892,14.5524555 103.752174,12.705057 103.752174,8.97072164 C103.752174,5.23502285 100.963892,3.34535916 97.0425715,3.34535916 L97.0425715,3.34535916 Z M103.798532,30.9977105 L96.1454127,17.4292163 L88.0655293,17.4292163 L88.0655293,30.9977105 L84.474167,30.9977105 L84.474167,0.424969821 L97.3725296,0.424969821 C103.231331,0.424969821 107.342173,3.64666917 107.342173,8.92709304 C107.342173,13.3922075 104.365733,16.3139602 100.019012,17.1279062 L108.003453,30.9977105 L103.798532,30.9977105 Z" id="Fill-44"></path>
                        <polygon id="Fill-45" points="113.348941 30.9977105 116.940304 30.9977105 116.940304 0.424969821 113.348941 0.424969821"></polygon>
                    </g>
                    <g id="Group-2" transform="translate(236.052073, 66.919908)" fill="#231F1F">
                        <path d="M4.54851918,11.890202 C2.62330904,11.890202 1.36346897,11.4484625 0.158167439,10.3522939 L1.09350325,9.50289965 C2.15564114,10.466819 3.14551547,10.7790362 4.58533269,10.7790362 C6.4560043,10.7790362 7.60813077,9.97736066 7.60813077,8.61942052 C7.60813077,8.01407371 7.4104286,7.49053052 6.99729922,7.16331603 C6.58280639,6.83746493 6.25830213,6.73930059 5.32296632,6.60841479 L3.82997404,6.39572537 C2.82101121,6.24847885 2.02883905,5.95398581 1.47118257,5.51224624 C0.82490098,4.98870305 0.499033258,4.27019457 0.499033258,3.33899666 C0.499033258,1.35934898 2.06565256,0.050491014 4.60305771,0.050491014 C6.24057711,0.050491014 7.32044002,0.428151073 8.41802795,1.32662753 L7.53586722,2.12830304 C6.74369505,1.47387405 5.89834782,1.13029884 4.54851918,1.13029884 C2.83873624,1.13029884 1.85022536,1.99741724 1.85022536,3.28855109 C1.85022536,3.86117645 2.02883905,4.31791335 2.42560686,4.63013051 C2.82101121,4.93962088 3.48774475,5.16867103 4.15311483,5.26819877 L5.55611854,5.46316407 C6.76278354,5.62677131 7.35725353,5.85582146 7.89582152,6.2812003 C8.59800511,6.81974082 8.97568443,7.62141632 8.97568443,8.58669907 C8.97568443,10.6304263 7.21272642,11.890202 4.54851918,11.890202" id="Fill-46"></path>
                        <path d="M21.6463486,1.99755358 C21.0886922,1.47401039 20.278795,1.16315663 19.4334477,1.16315663 C18.5867371,1.16315663 17.7768399,1.47401039 17.2191834,1.99755358 C16.4092862,2.74878352 16.3192976,3.5340983 16.3192976,5.97048287 C16.3192976,8.40686744 16.4092862,9.19081883 17.2191834,9.94341216 C17.7768399,10.4669553 18.5867371,10.7778091 19.4334477,10.7778091 C20.278795,10.7778091 21.0886922,10.4669553 21.6463486,9.94341216 C22.4562458,9.19081883 22.5462344,8.40686744 22.5462344,5.97048287 C22.5462344,3.5340983 22.4562458,2.74878352 21.6463486,1.99755358 M22.7071231,10.6796448 C21.8454143,11.4635962 20.7096494,11.8903384 19.4334477,11.8903384 C18.1545192,11.8903384 17.0201178,11.4635962 16.158409,10.6796448 C14.951744,9.58347622 14.951744,8.43958889 14.951744,5.97048287 C14.951744,3.50137685 14.951744,2.35748952 16.158409,1.26132097 C17.0201178,0.476006193 18.1545192,0.0506273533 19.4334477,0.0506273533 C20.7096494,0.0506273533 21.8454143,0.476006193 22.7071231,1.26132097 C23.9137881,2.35748952 23.9137881,3.50137685 23.9137881,5.97048287 C23.9137881,8.43958889 23.9137881,9.58347622 22.7071231,10.6796448" id="Fill-47"></path>
                        <path d="M34.7310966,11.890202 C33.4698931,11.890202 32.3177667,11.4648232 31.4560579,10.6795084 C30.2493929,9.58470327 30.2493929,8.43945255 30.2493929,5.97034653 C30.2493929,3.50124051 30.2493929,2.35735318 31.4560579,1.26118463 C32.3177667,0.475869853 33.4698931,0.050491014 34.7310966,0.050491014 C37.0339861,0.050491014 38.7437691,1.32662753 39.1759869,3.51760123 L37.7716197,3.51760123 C37.4293905,2.09421819 36.3318025,1.16302029 34.7310966,1.16302029 C33.884386,1.16302029 33.0744888,1.45751333 32.5168323,1.97969312 C31.7069351,2.73228645 31.6169465,3.53396196 31.6169465,5.97034653 C31.6169465,8.4067311 31.7069351,9.20840661 32.5168323,9.95963654 C33.0744888,10.4845431 33.884386,10.7790362 34.7310966,10.7790362 C36.3318025,10.7790362 37.466204,9.84647487 37.8084333,8.42309183 L39.1759869,8.42309183 C38.7614941,10.6140655 37.0162611,11.890202 34.7310966,11.890202" id="Fill-48"></path>
                        <polygon id="Fill-49" points="45.7995552 11.7920377 47.1671088 11.7920377 47.1671088 0.150018755 45.7995552 0.150018755"></polygon>
                        <polygon id="Fill-50" points="54.4747266 11.7916287 54.4747266 0.149609737 62.4291713 0.149609737 62.4291713 1.26077562 55.8422803 1.26077562 55.8422803 5.3645907 61.457022 5.3645907 61.457022 6.47848337 55.8422803 6.47848337 55.8422803 10.6804628 62.4291713 10.6804628 62.4291713 11.7916287"></polygon>
                        <polygon id="Fill-51" points="72.6337395 1.26132097 72.6337395 11.792174 71.2661858 11.792174 71.2661858 1.26132097 67.5575657 1.26132097 67.5575657 0.150155095 76.3409962 0.150155095 76.3409962 1.26132097"></polygon>
                        <polygon id="Fill-52" points="85.8090215 6.98389342 85.8090215 11.7912197 84.4401044 11.7912197 84.4401044 6.98389342 80.6251341 0.149200719 82.1004014 0.149200719 85.1245629 5.72548102 88.1119109 0.149200719 89.5871782 0.149200719"></polygon>
                    </g>
                    <path d="M104.464606,52.5432241 C97.248113,52.5432241 91.3769744,46.6823787 91.3769744,39.4785372 C91.3769744,32.276069 97.248113,26.4152235 104.464606,26.4152235 C111.6811,26.4152235 117.552238,32.276069 117.552238,39.4785372 C117.552238,46.6823787 111.6811,52.5432241 104.464606,52.5432241 M104.464606,23.2458629 C95.4831948,23.2458629 88.2034232,30.5128718 88.2034232,39.4785372 C88.2034232,48.4442026 95.4831948,55.7125848 104.464606,55.7125848 C113.446018,55.7125848 120.725789,48.4442026 120.725789,39.4785372 C120.725789,30.5128718 113.446018,23.2458629 104.464606,23.2458629" id="Fill-53" fill="#231F1F"></path>
                    <polygon id="Fill-54" fill="#231F1F" points="150.580898 54.5230236 127.076155 29.2320702 127.076155 54.5230236 123.484792 54.5230236 123.484792 23.950283 126.887997 23.950283 150.391377 49.1553426 150.391377 23.950283 153.982739 23.950283 153.982739 54.5230236"></polygon>
                    <path d="M92.0843738,16.201662 L325.331474,16.201662" id="Stroke-55" stroke="#000000"></path>
                    <path d="M92.0244176,62.6933877 L325.620331,62.6933877" id="Stroke-56" stroke="#000000"></path>
                </g>
            </g>
        </g>
    </g>
</svg>